<?xml version="1.0" encoding="UTF-8"?>
<svg version="1.1" xmlns="http://www.w3.org/2000/svg" width="893" height="1024">
<path d="M0 0 C0.80779404 -0.00970322 1.61558807 -0.01940643 2.44786072 -0.02940369 C5.04862511 -0.0542144 7.64912922 -0.06691907 10.25 -0.07421875 C11.13994659 -0.07683716 12.02989319 -0.07945557 12.94680786 -0.08215332 C27.76272805 -0.0868154 41.73970468 1.06652454 56.25 4.23828125 C57.76673187 4.5426411 59.28364846 4.84608241 60.80078125 5.1484375 C81.92136764 9.55349853 105.21890931 16.96870221 122.56469727 30.07104492 C124.37517228 31.32497525 126.20109289 32.24766328 128.19140625 33.1875 C132.60137354 35.30594083 136.32930576 38.06450595 140.1875 41.05078125 C140.88190186 41.58050537 141.57630371 42.11022949 142.29174805 42.65600586 C144.28260617 44.17733294 146.26666138 45.70717308 148.25 47.23828125 C149.70019531 48.34429687 149.70019531 48.34429687 151.1796875 49.47265625 C154.38348936 51.93065505 157.44268244 54.32958833 160.25 57.23828125 C163.83759949 60.92838359 167.59112719 64.24713101 171.578125 67.4921875 C173.44201764 69.43882304 173.71898051 70.65435137 174.25 73.23828125 C175.57407669 73.9231485 176.90909241 74.58698328 178.25 75.23828125 C182.25 79.68272569 182.25 79.68272569 182.25 82.23828125 C182.91 82.23828125 183.57 82.23828125 184.25 82.23828125 C185.93884409 84.39342565 187.51306282 86.54850659 189.0625 88.80078125 C189.48853516 89.40986328 189.91457031 90.01894531 190.35351562 90.64648438 C191.22307007 91.88964466 192.08905402 93.13530916 192.95166016 94.38330078 C193.79079782 95.58220412 194.64382794 96.77155504 195.51318359 97.94873047 C198.86807091 102.49495047 201.58198678 107.26344046 204.25 112.23828125 C204.67313477 113.00897949 205.09626953 113.77967773 205.53222656 114.57373047 C206.82690614 116.93389503 208.10235261 119.30367548 209.375 121.67578125 C210.01888672 122.84850586 210.01888672 122.84850586 210.67578125 124.04492188 C213.64964267 129.61290549 215.65149806 135.13483702 217.25 141.23828125 C210.83114795 143.51897227 204.39716164 145.26218389 197.75 146.73828125 C196.79528809 146.95258789 195.84057617 147.16689453 194.85693359 147.38769531 C183.73005898 149.84878551 172.56792945 151.88314114 161.25 153.23828125 C158.76763497 149.41299744 156.37418432 145.62219038 154.4375 141.48828125 C149.07825862 130.5115218 141.15676663 120.95913022 133.25 111.73828125 C131.25 109.23828125 131.25 109.23828125 131.25 107.23828125 C130.36030518 106.83295166 130.36030518 106.83295166 129.45263672 106.41943359 C127.26908377 105.24851482 125.78353222 104.05262932 124.0078125 102.33984375 C123.12029297 101.49679688 123.12029297 101.49679688 122.21484375 100.63671875 C121.60769531 100.05148438 121.00054688 99.46625 120.375 98.86328125 C116.21063798 94.85116472 112.18394076 91.31363728 107.25 88.23828125 C106.37859375 87.67367187 105.5071875 87.1090625 104.609375 86.52734375 C101.82915329 84.75432811 99.03951206 82.99663575 96.25 81.23828125 C95.49074219 80.74199219 94.73148438 80.24570313 93.94921875 79.734375 C73.81466105 66.97205605 47.75742632 57.96160505 23.84375 57.90234375 C22.87957153 57.89568695 21.91539307 57.88903015 20.92199707 57.88217163 C18.89170212 57.87210991 16.86137454 57.86735258 14.83105469 57.86767578 C11.78522581 57.86333149 8.74088325 57.82702122 5.6953125 57.7890625 C-6.65451863 57.71699962 -17.8642006 58.87573984 -29.75 62.23828125 C-30.83732422 62.53669922 -31.92464844 62.83511719 -33.04492188 63.14257812 C-35.79955413 63.93566196 -38.52444063 64.78853345 -41.25 65.67578125 C-42.13429688 65.94970703 -43.01859375 66.22363281 -43.9296875 66.50585938 C-50.2064049 68.51680183 -55.9221774 71.17821064 -61.75 74.23828125 C-62.77996094 74.73457031 -63.80992187 75.23085937 -64.87109375 75.7421875 C-68.64083987 77.70122789 -72.21691992 79.91637379 -75.8125 82.17578125 C-76.85374023 82.82063477 -76.85374023 82.82063477 -77.91601562 83.47851562 C-81.72851816 85.86449774 -85.28807226 88.35431447 -88.75 91.23828125 C-89.575 91.88667969 -90.4 92.53507812 -91.25 93.203125 C-95.66974349 96.69057885 -99.82025174 100.19625447 -103.75 104.23828125 C-104.9565625 105.13546875 -104.9565625 105.13546875 -106.1875 106.05078125 C-109.17331755 108.59964989 -111.19419021 111.41352198 -113.41796875 114.62890625 C-113.85753906 115.16 -114.29710937 115.69109375 -114.75 116.23828125 C-115.41 116.23828125 -116.07 116.23828125 -116.75 116.23828125 C-117.01296875 116.97691406 -117.2759375 117.71554688 -117.546875 118.4765625 C-118.75326226 121.24576961 -120.07547328 123.11548228 -122 125.42578125 C-125.74763655 130.13731609 -128.79907254 134.99760111 -131.75 140.23828125 C-132.08257812 140.79918457 -132.41515625 141.36008789 -132.7578125 141.93798828 C-140.26786399 154.63146109 -144.79517347 168.06672121 -148.75 182.23828125 C-149.06336807 183.35065659 -149.37673615 184.46303192 -149.69960022 185.6091156 C-151.14198339 191.40396534 -151.70994396 197.31385343 -152.375 203.23828125 C-152.5090625 204.39457031 -152.643125 205.55085937 -152.78125 206.7421875 C-153.10886458 209.57371349 -153.43165369 212.40570085 -153.75 215.23828125 C-152.9357314 215.23790153 -152.1214628 215.23752181 -151.2825194 215.23713058 C-103.07531122 215.21477653 -54.86810359 215.19760686 -6.66089127 215.18721592 C-0.87898935 215.18596514 4.90291255 215.18467082 10.68481445 215.18334961 C12.41150102 215.18295614 12.41150102 215.18295614 14.17307014 215.18255473 C32.83802482 215.17819755 51.50297643 215.17030974 70.16792928 215.16112845 C89.30469392 215.15179325 108.44145695 215.14622592 127.57822376 215.14419276 C139.39676237 215.14281725 151.21529232 215.13846518 163.03382827 215.13036478 C171.12650923 215.12509897 179.21918569 215.12347658 187.31186824 215.12477987 C191.98833842 215.12542351 196.6647934 215.12440285 201.34126091 215.11907578 C205.61518144 215.11424251 209.88907644 215.11394212 214.16299809 215.11738236 C215.71616898 215.11780812 217.2693414 215.11651178 218.82250922 215.11339807 C220.91979303 215.10943515 223.0169824 215.11151717 225.11426449 215.11523342 C226.28342339 215.1148537 227.45258228 215.11447398 228.65717024 215.11408275 C231.25 215.23828125 231.25 215.23828125 232.25 216.23828125 C232.34995992 217.5971076 232.3810577 218.96107679 232.38422108 220.32357121 C232.38867892 221.20947754 232.39313676 222.09538387 232.39772969 223.00813586 C232.39745315 224.48500727 232.39745315 224.48500727 232.39717102 225.99171448 C232.40084771 227.02919183 232.4045244 228.06666919 232.4083125 229.13558525 C232.41940016 232.64190872 232.42320197 236.1482026 232.42700195 239.65454102 C232.43326349 242.15758866 232.43991001 244.66063536 232.44691467 247.16368103 C232.46619442 254.70516596 232.47675852 262.24664571 232.48564246 269.78814903 C232.49002638 273.34596415 232.4953936 276.90377778 232.50063133 280.46159172 C232.51766137 292.305721 232.53214647 304.14984934 232.53938007 315.99398899 C232.54128983 319.07094384 232.54321016 322.14789869 232.54516602 325.22485352 C232.54564976 325.98957117 232.5461335 326.75428883 232.5466319 327.54217976 C232.55489785 339.87701505 232.5801681 352.21175227 232.61274669 364.54654492 C232.64598153 377.23447362 232.66384429 389.92235287 232.66702431 402.61032528 C232.6691763 409.72387085 232.67772806 416.83727422 232.70348549 423.95077705 C232.72773744 430.66407295 232.73091634 437.37707156 232.72072411 444.09041786 C232.72023344 446.53627115 232.72641274 448.98213779 232.74028015 451.42795181 C232.88847079 479.14897757 228.10979875 505.32682449 218.25 531.23828125 C217.98316406 531.94629883 217.71632813 532.65431641 217.44140625 533.38378906 C213.54388032 543.61712569 208.84477461 553.11381522 203.26074219 562.52978516 C202.3905781 564.00065672 201.54092017 565.48362497 200.6953125 566.96875 C192.58035799 581.02091699 182.57592162 595.10083167 170.25 605.67578125 C167.80996232 607.78350036 165.82873838 609.7437952 163.75 612.23828125 C155.88101006 621.68106917 155.88101006 621.68106917 151.12890625 622.6875 C150.50886719 622.86925781 149.88882812 623.05101562 149.25 623.23828125 C148.94876221 623.85703125 148.64752441 624.47578125 148.3371582 625.11328125 C147.13288032 627.46720776 146.14264724 628.32137708 143.9765625 629.7890625 C143.32308838 630.23652832 142.66961426 630.68399414 141.99633789 631.14501953 C141.29629639 631.6089209 140.59625488 632.07282227 139.875 632.55078125 C139.15111084 633.03788574 138.42722168 633.52499023 137.68139648 634.02685547 C131.68000182 638.0295542 125.56746943 641.75386333 119.25 645.23828125 C118.6626709 645.57537109 118.0753418 645.91246094 117.47021484 646.25976562 C95.46530154 658.88581426 71.78526712 665.77449948 47 670.36328125 C45.63488281 670.61924072 45.63488281 670.61924072 44.2421875 670.88037109 C1.29617079 678.69934696 -46.50313588 671.17168502 -85.12890625 651.0703125 C-87.53838124 649.82283774 -89.96119708 648.69780429 -92.46484375 647.65234375 C-95.10369868 646.51647516 -97.36338754 645.36956746 -99.75 643.80078125 C-102.16257036 642.24160576 -104.5364121 640.80798029 -107.0625 639.42578125 C-114.75302301 635.06839688 -121.66923434 629.33789615 -128.6875 623.98828125 C-129.50275146 623.37025635 -129.50275146 623.37025635 -130.33447266 622.73974609 C-133.35910301 620.41593324 -136.1185914 617.99805125 -138.75 615.23828125 C-142.31684805 611.57235409 -146.04463277 608.24291607 -149.98046875 604.984375 C-151.82251031 603.16673134 -152.64787034 601.55227642 -153.75 599.23828125 C-154.4925 598.66078125 -155.235 598.08328125 -156 597.48828125 C-159.6322344 594.5164531 -162.05654401 591.05510547 -164.75 587.23828125 C-165.31976563 586.43777344 -165.88953125 585.63726563 -166.4765625 584.8125 C-171.84236483 577.21291653 -177.00765078 569.503072 -181.9375 561.61328125 C-182.59105469 560.56914063 -183.24460938 559.525 -183.91796875 558.44921875 C-185.81338894 555.12718166 -187.28114003 551.76678233 -188.75 548.23828125 C-189.56870541 546.60586253 -190.40079227 544.98004211 -191.25 543.36328125 C-193.16423697 539.57468725 -194.65742788 535.8667184 -195.89526367 531.81225586 C-196.84333586 528.95720726 -197.97437085 526.21012974 -199.11328125 523.42578125 C-201.74697945 516.60810954 -203.50024476 509.70926011 -205.00805664 502.57446289 C-205.4341973 500.56634468 -205.88088931 498.56361989 -206.33007812 496.56054688 C-210.00594452 479.79290985 -211.05463939 463.26789795 -210.98046875 446.140625 C-210.97927277 444.28544649 -210.97882467 442.43026737 -210.9790802 440.5750885 C-210.97753331 436.73222944 -210.96937288 432.88946593 -210.95581055 429.04663086 C-210.93861797 424.11256648 -210.93500294 419.17860437 -210.93575573 414.24451351 C-210.9354849 410.43485024 -210.9300211 406.62520948 -210.92275429 402.81555367 C-210.91956953 400.99380221 -210.91760066 399.17204821 -210.91686058 397.35029411 C-210.9147065 394.82585073 -210.90598878 392.30151917 -210.89526367 389.77709961 C-210.89571686 389.02351166 -210.89617004 388.26992371 -210.89663696 387.49349976 C-210.86449582 382.35277707 -210.86449582 382.35277707 -209.75 381.23828125 C-208.03681054 381.13946532 -206.31955197 381.11029156 -204.60351562 381.10888672 C-202.95675842 381.10415848 -202.95675842 381.10415848 -201.2767334 381.09933472 C-199.48459412 381.10237106 -199.48459412 381.10237106 -197.65625 381.10546875 C-196.43925415 381.10451202 -195.2222583 381.1035553 -193.96838379 381.10256958 C-191.38924101 381.10188753 -188.81009653 381.10374353 -186.23095703 381.10791016 C-182.26721364 381.11325803 -178.30358358 381.10796596 -174.33984375 381.1015625 C-171.84114558 381.10222328 -169.34244748 381.10350443 -166.84375 381.10546875 C-165.64899048 381.10344452 -164.45423096 381.10142029 -163.2232666 381.09933472 C-162.12542847 381.10248688 -161.02759033 381.10563904 -159.89648438 381.10888672 C-158.43873596 381.11008011 -158.43873596 381.11008011 -156.95153809 381.11129761 C-154.75 381.23828125 -154.75 381.23828125 -153.75 382.23828125 C-153.63553775 384.72909899 -153.58516656 387.19331978 -153.57641602 389.68530273 C-153.569729 390.46608185 -153.56304199 391.24686096 -153.55615234 392.05130005 C-153.5420585 393.75588328 -153.53017842 395.46048587 -153.52020454 397.16509819 C-153.50378397 399.87958919 -153.48053368 402.59394229 -153.45530701 405.30836487 C-153.38464567 413.03013164 -153.32507304 420.75196195 -153.27319336 428.47387695 C-153.24098836 433.19544825 -153.19959103 437.91687272 -153.15299797 442.63832283 C-153.13719083 444.42366893 -153.12477392 446.20904894 -153.11609077 447.99444389 C-153.07164615 457.02037903 -152.83308494 465.95756369 -151.87084961 474.93774414 C-151.79644685 475.6469699 -151.72204409 476.35619566 -151.6453867 477.08691311 C-150.77881305 484.37734785 -148.70888362 491.26771822 -146.41015625 498.21972656 C-145.77450556 500.16335079 -145.17920221 502.11497266 -144.59375 504.07421875 C-140.7970776 516.3107913 -135.44223684 527.88657388 -128.03515625 538.375 C-126.75 540.23828125 -126.75 540.23828125 -124.9375 543.61328125 C-116.47891678 558.6661069 -100.32107395 575.2476186 -85.75 584.23828125 C-84.35180408 585.17225402 -82.95622046 586.11014306 -81.5625 587.05078125 C-80.78390625 587.56511719 -80.0053125 588.07945312 -79.203125 588.609375 C-77.57727936 589.68895722 -75.96238782 590.78523415 -74.359375 591.8984375 C-40.33772223 614.80565463 4.437015 619.85479806 44.14990234 612.88525391 C57.14998925 610.1722101 70.37594184 605.93535085 82.015625 599.46484375 C84.25 598.23828125 84.25 598.23828125 86.65625 597.3046875 C94.94871689 593.8952847 102.63717199 588.24308681 109.4453125 582.48828125 C111.25 581.23828125 111.25 581.23828125 114.25 581.23828125 C114.5903125 580.37203125 114.5903125 580.37203125 114.9375 579.48828125 C116.59848222 576.64088316 118.56524561 575.11760932 121.25 573.23828125 C121.91 573.23828125 122.57 573.23828125 123.25 573.23828125 C123.476875 572.68269531 123.70375 572.12710938 123.9375 571.5546875 C125.62697184 568.57297082 127.78502125 566.55118955 130.25 564.17578125 C132.93210288 561.5833417 135.17789175 559.34644363 137.25 556.23828125 C137.91 556.23828125 138.57 556.23828125 139.25 556.23828125 C139.45625 555.55765625 139.6625 554.87703125 139.875 554.17578125 C141.11372142 551.52942185 142.14295051 550.10521372 144.0625 547.98828125 C146.93258143 544.77602466 148.97530968 541.44833094 150.9765625 537.64453125 C151.99601368 535.71820631 153.06949111 533.82051135 154.16015625 531.93359375 C159.81370272 522.0676009 164.33728 511.6606286 168.0625 500.92578125 C168.34005127 500.15862793 168.61760254 499.39147461 168.90356445 498.60107422 C174.14183234 482.86557851 174.69797956 466.12600844 174.68237305 449.70019531 C174.69141938 447.73667293 174.70175346 445.77315613 174.71325684 443.80964661 C174.74051633 438.54858656 174.75006847 433.28763452 174.75611091 428.0265131 C174.7655766 422.5025573 174.79178569 416.97867967 174.81611633 411.45477295 C174.85956177 401.02545237 174.88824293 390.59614716 174.91143972 380.16676402 C174.93861 368.28014462 174.98251356 356.39360473 175.02772844 344.50704241 C175.12025978 320.0841653 175.19208379 295.66126327 175.25 271.23828125 C174.29257684 271.24343498 173.33515368 271.24858871 172.34871769 271.25389862 C-30.2276816 272.34249913 -30.2276816 272.34249913 -130.40263385 272.36111188 C-136.85622371 272.36239929 -143.30980902 272.36615084 -149.76339722 272.37084961 C-158.35734046 272.37688519 -166.95126783 272.37702102 -175.54521179 272.37260056 C-178.67064345 272.37113204 -181.79606269 272.37181788 -184.92149353 272.37443924 C-189.13119158 272.3777999 -193.34084143 272.37325127 -197.55053711 272.36767578 C-198.78836158 272.36970253 -200.02618605 272.37172928 -201.30152035 272.37381744 C-202.41224187 272.3709951 -203.52296339 272.36817276 -204.66734314 272.36526489 C-205.63214065 272.36488787 -206.59693815 272.36451084 -207.59097195 272.36412239 C-209.75 272.23828125 -209.75 272.23828125 -210.75 271.23828125 C-210.85976715 269.37151213 -210.89911405 267.50057013 -210.91113281 265.63061523 C-210.92074036 264.42682724 -210.9303479 263.22303925 -210.94024658 261.98277283 C-210.94449646 260.66330154 -210.94874634 259.34383026 -210.953125 257.984375 C-210.95595238 257.30916368 -210.95877975 256.63395237 -210.96169281 255.93828011 C-210.9767474 252.33799979 -210.98592649 248.73775988 -210.99023438 245.13745117 C-210.99455655 242.20405199 -211.00818899 239.27095736 -211.03125 236.33764648 C-211.20477236 213.80777583 -210.29923461 191.74263672 -204.9375 169.73828125 C-204.5506604 168.11224976 -204.5506604 168.11224976 -204.15600586 166.45336914 C-202.18214117 158.4207283 -199.74432175 150.74300476 -196.53417969 143.12451172 C-195.69824762 141.1137984 -194.91315362 139.08758333 -194.1328125 137.0546875 C-190.42842699 127.53806286 -185.96017011 118.71709478 -180.75195312 109.93798828 C-179.902372 108.49676416 -179.08083439 107.03906603 -178.265625 105.578125 C-171.35150481 93.39707208 -162.2533682 82.46102792 -152.75 72.23828125 C-151.22860616 70.47374228 -149.72542823 68.69643427 -148.234375 66.90625 C-139.53498611 57.13088406 -129.35202722 48.83973473 -118.75 41.23828125 C-118.21584473 40.8525293 -117.68168945 40.46677734 -117.13134766 40.06933594 C-110.71000943 35.44749903 -104.21168595 31.18934313 -97.1875 27.52734375 C-95.47512874 26.62176279 -93.79165924 25.66041607 -92.1328125 24.66015625 C-89.76420337 23.2467567 -87.35655653 22.16624214 -84.81103516 21.11206055 C-82.39746284 20.08882253 -80.02669193 18.98562335 -77.6484375 17.8828125 C-53.6765252 6.98828947 -26.42057943 0.26689965 0 0 Z " fill="#EF5422" transform="translate(435.75,17.76171875)"/>
<path d="M0 0 C3.06732507 2.95898556 3.79713762 5.64589702 4.63500977 9.67944336 C4.79838837 10.39050232 4.96176697 11.10156128 5.13009644 11.83416748 C5.64733504 14.10706398 6.13726806 16.38489791 6.62719727 18.66381836 C6.96272761 20.14858065 7.29995349 21.63296085 7.63891602 23.11694336 C9.42153035 31.00620014 11.00042881 38.92187635 12.45596313 46.87738037 C13.45182353 52.2749963 14.66953499 57.59114925 16.00219727 62.91381836 C17.47900476 68.95699106 18.84895808 74.97639832 19.93969727 81.10131836 C21.41066718 89.31701966 23.324627 97.41299323 25.23144531 105.53710938 C27.04395785 113.30461629 28.70671507 121.08733559 30.20898438 128.9206543 C30.35215088 129.66347656 30.49531738 130.40629883 30.64282227 131.17163086 C30.76173828 131.80214355 30.8806543 132.43265625 31.00317383 133.08227539 C31.7452709 136.54950976 32.63135256 139.97672282 33.50219727 143.41381836 C34.73447554 138.70534837 35.96097332 133.99542006 37.18261719 129.28417969 C37.59712835 127.68873597 38.01309362 126.09366919 38.43066406 124.49902344 C40.84661753 115.26839498 43.03875827 106.06656724 44.84277344 96.69482422 C45.70672974 92.39615382 46.81777769 88.19557661 48.00219727 83.97631836 C49.59074932 78.14534243 50.95350696 72.36632752 52.00219727 66.41381836 C53.19774969 59.62769975 54.85995729 53.05450952 56.66625977 46.40771484 C57.9553315 41.62077413 59.07199502 36.84930965 60.00219727 31.97631836 C61.1738707 25.84344486 62.56560496 19.78751023 64.06469727 13.72631836 C64.37987305 12.43286499 64.37987305 12.43286499 64.70141602 11.11328125 C64.90508789 10.30109131 65.10875977 9.48890137 65.31860352 8.65209961 C65.58846069 7.56989136 65.58846069 7.56989136 65.86376953 6.46582031 C67.09346075 2.51340936 67.83303954 0.80416037 71.50219727 -1.33618164 C77.24486186 -3.51360863 83.63164383 -3.50063006 89.43969727 -1.52368164 C96.38931734 2.87301678 97.1798122 13.48384876 99.00219727 20.97631836 C99.44499023 22.75619141 99.44499023 22.75619141 99.89672852 24.57202148 C101.66688545 31.75012483 103.2742638 38.95020638 104.80102539 46.18359375 C105.76016305 50.60223941 106.86826841 54.97494145 108.00219727 59.35131836 C109.46772331 65.10073146 110.8335573 70.83203901 111.93969727 76.66381836 C113.40357484 84.30758817 115.31992318 91.8186458 117.23583984 99.36010742 C118.97741946 106.23986089 120.59019696 113.1338697 122.09472656 120.06884766 C123.72893406 127.55961282 125.60002551 134.98725417 127.50219727 142.41381836 C130.82699057 131.33589002 133.43335191 120.24360722 135.62158203 108.88671875 C136.95443926 102.0144839 138.45378801 95.21078336 140.12719727 88.41381836 C141.8096647 81.56853547 143.20094104 74.74956394 144.33862305 67.79467773 C145.42455415 61.38481457 147.03542222 55.14230006 148.66625977 48.8527832 C150.01287474 43.58496335 151.12257333 38.34087536 152.00219727 32.97631836 C153.11506236 26.33106081 154.41198797 19.74081627 155.87719727 13.16381836 C156.06217773 12.26993408 156.2471582 11.3760498 156.43774414 10.45507812 C157.66395134 5.12199341 158.93338499 1.81656063 163.50219727 -1.58618164 C167.41773675 -2.92041513 171.28696468 -2.82922816 175.31469727 -2.02368164 C178.47059429 0.05019355 179.813282 2.03598782 181.50219727 5.41381836 C181.83259178 11.23464935 181.10572317 16.4154459 179.85766602 22.08569336 C179.60198601 23.29119843 179.60198601 23.29119843 179.34114075 24.52105713 C178.79822043 27.07033076 178.24391522 29.61698003 177.68969727 32.16381836 C177.32897447 33.85637835 176.96894286 35.5490858 176.60961914 37.24194336 C174.91404427 45.18267492 173.11778247 53.07765402 171.10351562 60.94458008 C170.28265918 64.31532393 169.72524969 67.67305421 169.18969727 71.10131836 C167.78879055 79.59283129 165.74893952 87.9016996 163.6965332 96.25561523 C161.98454783 103.2698517 160.53282134 110.25762474 159.27172852 117.36694336 C158.38027194 122.23032066 157.2454846 127.03600965 156.12719727 131.85131836 C153.98934348 141.06134478 152.07865024 150.30334733 150.28979492 159.58740234 C149.10483108 165.66824347 147.71158452 171.65833748 146.17602539 177.65991211 C145.01177327 182.41815991 144.25120095 187.23581518 143.44360352 192.06616211 C142.41470082 195.72495718 141.11099102 197.68438675 138.50219727 200.41381836 C135.38619932 201.97181733 132.10815325 201.7218495 128.68969727 201.78881836 C127.62138672 201.84489258 127.62138672 201.84489258 126.53149414 201.90209961 C122.54659458 201.96845316 120.75054686 201.61016455 117.59204102 199.11303711 C111.33358981 191.02969173 110.00631185 179.14805059 108.12719727 169.35131836 C106.82043454 162.63180689 105.12669391 156.06800188 103.33862305 149.46240234 C101.72866197 143.44957932 100.47586193 137.41747442 99.31860352 131.30053711 C98.19702202 125.96095055 96.77889748 120.71242955 95.30297852 115.46069336 C94.13567881 111.21260901 93.2419434 107.01877275 92.56469727 102.66381836 C91.50825401 96.01419175 89.82198781 89.59530992 88.06469727 83.10131836 C85.75724261 74.41894068 83.60998387 65.78152535 82.01000977 56.94116211 C81.62092534 54.43272686 81.62092534 54.43272686 80.50219727 52.41381836 C80.21554199 53.70461304 80.21554199 53.70461304 79.9230957 55.02148438 C79.19496216 58.29304709 78.4639726 61.56394686 77.73120117 64.83447266 C77.41792615 66.23526865 77.10570805 67.63630154 76.79467773 69.03759766 C74.85909255 77.753995 72.76588472 86.39602298 70.38574219 95.00244141 C69.47010694 98.53771947 68.74283095 102.07600022 68.06469727 105.66381836 C66.94896565 111.49244909 65.55287968 117.18641776 64.00219727 122.91381836 C62.15453582 129.74520507 60.62873762 136.56460668 59.30297852 143.51928711 C58.22314619 148.77095945 56.89126868 153.94633582 55.55126953 159.13671875 C54.25172882 164.23224822 53.07289665 169.33860202 51.98657227 174.48413086 C51.7291626 175.69423828 51.47175293 176.9043457 51.20654297 178.15112305 C50.70457578 180.53231092 50.21310638 182.91574188 49.73339844 185.30151367 C48.49193429 191.16305027 47.43441594 195.80908743 43.50219727 200.41381836 C40.4019946 201.96391969 37.15311824 201.72177511 33.75219727 201.78881836 C32.69645508 201.84489258 32.69645508 201.84489258 31.61938477 201.90209961 C27.30736605 201.97423375 24.00158087 201.45821836 20.73364258 198.31933594 C17.89289125 193.92360553 17.44089459 188.47423795 16.50219727 183.41381836 C15.94266041 180.98751681 15.36949643 178.56432163 14.78344727 176.14428711 C9.30571329 152.98151449 9.30571329 152.98151449 7.24438477 141.24975586 C6.31604283 136.45169387 5.16398872 131.72235102 4.00219727 126.97631836 C2.45396024 120.64629268 1.05926662 114.34445145 0.00219727 107.91381836 C-1.17420293 100.77862203 -2.7950458 93.80302113 -4.51904297 86.78198242 C-6.4772417 78.71545995 -8.09614969 70.59666823 -9.68823242 62.45117188 C-11.01569022 55.70221285 -12.4892632 49.01148783 -14.11474609 42.32885742 C-15.42601497 36.87967246 -16.49853072 31.40276792 -17.4855957 25.88623047 C-18.11892799 22.35493665 -18.855486 18.88790486 -19.74780273 15.41381836 C-20.72333995 11.04474572 -20.59075938 7.78564494 -19.49780273 3.41381836 C-17.40184174 0.75138142 -15.73885162 -0.98705459 -12.68530273 -2.46118164 C-7.84354068 -2.73785376 -4.0935477 -2.59952882 0 0 Z " fill="#000000" transform="translate(173.497802734375,804.586181640625)"/>
<path d="M0 0 C5.29186227 3.4458638 7.32773167 6.70290823 9.5 12.625 C11.50591201 17.93098177 13.71213195 23.02071401 16.3125 28.0625 C18.74815259 32.81068429 20.88672283 37.54286305 22.79296875 42.5234375 C23.92429093 45.33939228 25.29678473 47.99298916 26.6875 50.6875 C27.80985798 53.00236334 28.75232061 55.35360281 29.6875 57.75 C31.16905228 61.54069039 32.83204339 65.14818754 34.69140625 68.765625 C36.10158153 71.57491537 37.35464502 74.44621838 38.6171875 77.32421875 C39.80586281 80.01826024 41.02626725 82.69671066 42.25 85.375 C43.6215015 88.38143165 44.97265816 91.38992899 46.25 94.4375 C47.36031634 96.99605504 48.5243078 99.46889646 49.77734375 101.95703125 C50.13562256 102.66964111 50.49390137 103.38225098 50.86303711 104.11645508 C51.13510986 104.6555249 51.40718262 105.19459473 51.6875 105.75 C61.95175678 85.62642112 61.95175678 85.62642112 70.828125 64.87109375 C71.95422381 62.09167714 73.31930229 59.46490528 74.69140625 56.80078125 C76.183481 53.72886265 77.3837759 50.55323155 78.62890625 47.375 C80.90991572 41.71876988 83.52961678 36.20697171 86.12890625 30.69140625 C89.35066211 23.83392251 89.35066211 23.83392251 92.15625 16.80078125 C94.81393205 9.53485731 96.87252561 4.0409098 103.6875 -0.25 C108.54541969 -1.78560483 113.55026601 -1.832882 118.4375 -0.5 C122.2127273 1.5973485 124.31678337 3.6378501 125.6875 7.75 C125.79145092 10.24490089 125.8396719 12.71233821 125.84140015 15.20759583 C125.84797353 16.35665241 125.84797353 16.35665241 125.8546797 17.52892226 C125.86806707 20.10367526 125.87424638 22.67839403 125.88037109 25.25317383 C125.88827201 27.096076 125.89654095 28.93897662 125.90515137 30.78187561 C125.93136912 36.84024579 125.94667712 42.89862289 125.9609375 48.95703125 C125.96629697 51.04176017 125.97167448 53.12648905 125.97706985 55.21121788 C125.99869674 63.88146904 126.01743449 72.55171833 126.02869225 81.22198963 C126.04493896 93.65314502 126.07813656 106.08398822 126.13509309 118.51502591 C126.17376667 127.25311218 126.19332178 135.99111485 126.19861281 144.72928447 C126.20226933 149.94982547 126.2143229 155.17003348 126.24671555 160.39048195 C126.27675123 165.30139655 126.28312406 170.21177587 126.27133179 175.12276268 C126.27111069 176.92471688 126.27944589 178.7266956 126.29698563 180.52856445 C126.31964242 182.99017308 126.3114001 185.44983486 126.29550171 187.91145325 C126.3093838 188.62342812 126.32326588 189.33540299 126.33756864 190.06895286 C126.2485636 195.66736526 124.50542406 197.95334101 120.6875 201.75 C116.98210158 203.60269921 112.73126687 203.21444489 108.6875 202.75 C105.57423375 201.43882399 103.23445424 199.84390848 101.6875 196.75 C101.58220462 194.93843801 101.54089229 193.12302353 101.52928162 191.30844116 C101.5194928 190.15295273 101.50970398 188.99746429 101.49961853 187.80696106 C101.49386307 186.53310043 101.4881076 185.25923981 101.48217773 183.94677734 C101.47260131 182.59674274 101.46259137 181.24671115 101.45217896 179.89668274 C101.42509821 176.2254499 101.40410585 172.55420416 101.38417697 168.88292646 C101.36233693 165.04852404 101.33493856 161.21416152 101.30812073 157.37979126 C101.25816699 150.11606478 101.21323813 142.85231619 101.17009836 135.5885464 C101.12074888 127.32019089 101.06582228 119.05187541 101.01041877 110.78355861 C100.89655757 93.77240938 100.78972756 76.76122303 100.6875 59.75 C99.88309866 61.34694124 99.0800563 62.94456705 98.27758789 64.54248047 C97.83024796 65.43208466 97.38290802 66.32168884 96.92201233 67.23825073 C95.52913729 70.07220612 94.29692263 72.94315175 93.125 75.875 C91.75966573 79.22240833 90.36579933 82.48592498 88.6875 85.6875 C87.02010362 88.92304298 85.71413345 92.21638869 84.4375 95.625 C82.11533563 101.79369431 79.49540168 107.79042475 76.77270508 113.79199219 C75.04118247 117.62900411 73.37947424 121.47075986 71.86328125 125.3984375 C65.50776758 141.86177145 65.50776758 141.86177145 59.6875 145.75 C54.2427702 147.62949748 48.92580663 147.06694332 43.6875 144.75 C39.18229429 140.11420861 36.77919215 135.14958151 34.25 129.25 C33.66750488 127.92476318 33.66750488 127.92476318 33.07324219 126.57275391 C30.34086312 120.33717964 27.68596948 114.06806794 25.02734375 107.80078125 C23.40072849 104.09703046 21.6067616 100.49914136 19.765625 96.8984375 C18.5955161 94.56669874 17.56256506 92.19049764 16.5625 89.78125 C15.35210721 86.97140959 14.0451907 84.20920811 12.75 81.4375 C10.50482182 76.60730277 8.43324996 71.75412929 6.546875 66.7734375 C5.65582865 64.50175119 5.65582865 64.50175119 3.6875 61.75 C3.68511165 62.42476191 3.68272329 63.09952381 3.68026257 63.79473305 C3.62110237 80.22030319 3.54554585 96.64570799 3.45178509 113.07111549 C3.40683744 121.01435646 3.36742043 128.9575527 3.34106445 136.90087891 C3.31807598 143.82504361 3.28466854 150.74906663 3.23879844 157.67311895 C3.21487754 161.33868657 3.1961414 165.00411397 3.18988609 168.66975784 C3.18270417 172.76392835 3.15225958 176.85761142 3.11987305 180.95166016 C3.12130814 182.16438599 3.12274323 183.37711182 3.1242218 184.62658691 C3.00858982 194.94569611 3.00858982 194.94569611 -0.3125 199.75 C-4.06015829 203.15696208 -7.99409326 203.31397347 -12.8671875 203.17578125 C-16.90148125 202.47332435 -18.58518183 200.75704311 -21.3125 197.75 C-22.49306361 194.20830916 -22.45740478 191.00866144 -22.45294189 187.32363892 C-22.45591302 186.56097918 -22.45888414 185.79831944 -22.4619453 185.0125488 C-22.47063788 182.44927281 -22.47214101 179.88604349 -22.47363281 177.32275391 C-22.47826055 175.48808187 -22.48328514 173.65341079 -22.48867798 171.81874084 C-22.50180723 166.82907285 -22.50824782 161.83941831 -22.51268864 156.84973574 C-22.51561817 153.73383051 -22.51972272 150.61792898 -22.52419281 147.5020256 C-22.53786836 137.75716024 -22.54753506 128.01230329 -22.5513947 118.26742899 C-22.55587748 107.01055527 -22.57343533 95.75380284 -22.6023953 84.496966 C-22.62399342 75.80050615 -22.63409796 67.10408048 -22.63543582 58.40759408 C-22.63648508 53.21121268 -22.64241863 48.01494529 -22.66025543 42.81859207 C-22.67670406 37.93157666 -22.67890725 33.04476138 -22.67011642 28.1577282 C-22.66934436 26.36343157 -22.673711 24.56912433 -22.68357468 22.77485466 C-22.6962458 20.32643946 -22.69044406 17.87873826 -22.67999268 15.43032837 C-22.69207728 14.36383322 -22.69207728 14.36383322 -22.70440602 13.27579272 C-22.66091493 8.92327981 -21.9339506 6.23432402 -19.3125 2.75 C-13.70792632 -2.15400197 -6.81974353 -2.57348812 0 0 Z " fill="#000000" transform="translate(540.3125,803.25)"/>
<path d="M0 0 C1.19275543 -0.0038269 2.38551086 -0.00765381 3.6144104 -0.01159668 C6.13764286 -0.01431366 8.66090359 -0.00696761 11.18408203 0.00976562 C14.99187432 0.03098701 18.79773857 0.01005286 22.60546875 -0.015625 C41.24149765 -0.03876643 57.60719457 0.4452439 72.6640625 12.53125 C73.66695312 13.30984375 74.66984375 14.0884375 75.703125 14.890625 C82.6249061 21.06361184 88.09554672 29.61698934 90.6640625 38.53125 C91.1829454 40.29788246 91.1829454 40.29788246 91.71231079 42.10020447 C92.94551903 47.10307621 92.95944602 51.98509546 92.95458984 57.11547852 C92.96130707 58.14593796 92.96802429 59.1763974 92.97494507 60.23808289 C92.99386749 63.62882375 92.9978469 67.01936593 93 70.41015625 C93.00643372 72.78417541 93.01316251 75.15819378 93.02017212 77.5322113 C93.03213184 82.50594925 93.03585446 87.47961783 93.03466797 92.45336914 C93.03446528 98.79223933 93.06172233 105.13065869 93.09621239 111.46942234 C93.11857678 116.3742828 93.12250253 121.27903659 93.12144852 126.18394279 C93.12379186 128.5188648 93.13254303 130.85379031 93.14811325 133.18866158 C93.24792663 149.7077009 93.33366662 164.98296556 82.6640625 178.53125 C82.14328125 179.28535156 81.6225 180.03945313 81.0859375 180.81640625 C77.18173172 186.40651907 77.18173172 186.40651907 72.6640625 187.53125 C72.3340625 188.52125 72.0040625 189.51125 71.6640625 190.53125 C62.40823974 197.42774539 50.49968194 201.61238948 38.94335938 201.69238281 C37.81869263 201.70199036 36.69402588 201.7115979 35.53527832 201.72149658 C34.3299646 201.72574646 33.12465088 201.72999634 31.8828125 201.734375 C30.63657104 201.74007507 29.39032959 201.74577515 28.10632324 201.75164795 C25.4737228 201.76108453 22.84111062 201.76762659 20.20849609 201.77148438 C17.51207056 201.77588537 14.81596211 201.78984379 12.11962891 201.8125 C8.22809121 201.84291378 4.33695569 201.85352565 0.4453125 201.859375 C-0.76000122 201.8717218 -1.96531494 201.8840686 -3.20715332 201.89678955 C-4.89415344 201.8922879 -4.89415344 201.8922879 -6.61523438 201.88769531 C-7.60164917 201.89134094 -8.58806396 201.89498657 -9.60437012 201.89874268 C-13.94251377 201.31510852 -17.66287128 199.00623609 -20.3359375 195.53125 C-21.43407155 191.40249979 -21.4641885 187.43895089 -21.46965027 183.18154907 C-21.47191583 182.45126004 -21.47418138 181.720971 -21.47651559 180.96855199 C-21.48283488 178.52670729 -21.48202756 176.08491838 -21.48120117 173.64306641 C-21.48419394 171.89016142 -21.48759675 170.1372571 -21.49137878 168.38435364 C-21.50021069 163.62606348 -21.50255655 158.8677913 -21.50319457 154.10949373 C-21.5039055 151.13594533 -21.50604063 148.16240149 -21.50869179 145.18885422 C-21.51794232 134.81307434 -21.52202701 124.4373073 -21.52124023 114.06152344 C-21.52063942 104.39297337 -21.53119271 94.72447908 -21.5469839 85.05594313 C-21.56006297 76.75176501 -21.56542398 68.44760511 -21.56478482 60.14341676 C-21.56452996 55.18512598 -21.56737499 50.22688479 -21.57796288 45.26860428 C-21.58765008 40.60483677 -21.58771874 35.94116619 -21.58044624 31.27739525 C-21.5794012 29.56779399 -21.58175853 27.85818668 -21.5878067 26.14859581 C-21.59554098 23.81058974 -21.59087246 21.47291726 -21.58317566 19.13491821 C-21.58372043 17.8278573 -21.58426519 16.52079639 -21.58482647 15.17412758 C-21.32227686 11.33130526 -20.66006244 8.14640698 -19.3359375 4.53125 C-13.46877612 -0.4114194 -7.41085029 -0.05284591 0 0 Z M2.6640625 24.53125 C2.6640625 75.02125 2.6640625 125.51125 2.6640625 177.53125 C35.56393569 180.59900182 35.56393569 180.59900182 61.2265625 167.21875 C67.89164881 158.08511321 69.81535227 149.54443475 69.80932617 138.45581055 C69.81268478 137.56230896 69.8160434 136.66880737 69.81950378 135.74822998 C69.82897506 132.80479529 69.83095501 129.86141772 69.83203125 126.91796875 C69.8352466 124.86302162 69.83861088 122.80807471 69.84211731 120.75312805 C69.8480991 116.44845041 69.8499582 112.14379283 69.84936523 107.83911133 C69.84926369 102.338235 69.86291192 96.83748798 69.88013744 91.33664227 C69.89128657 87.09256913 69.89328354 82.84852697 69.89275551 78.60444069 C69.89393138 76.57717252 69.89833101 74.54990344 69.90608788 72.52264977 C69.91594617 69.67996688 69.91298671 66.83756093 69.90698242 63.99487305 C69.91260193 63.16703812 69.91822144 62.33920319 69.92401123 61.48628235 C69.8649996 50.42510783 67.03007623 41.15191669 59.6015625 32.78125 C42.61519905 18.76075954 25.08907928 24.53125 2.6640625 24.53125 Z " fill="#000000" transform="translate(787.3359375,803.46875)"/>
<path d="M0 0 C6.45227382 3.53048945 8.25025225 8.64785904 10.3125 15.3125 C10.5695874 16.11421631 10.8266748 16.91593262 11.09155273 17.74194336 C11.84295895 20.09547093 12.57951289 22.45318159 13.3125 24.8125 C13.85583984 26.53146484 13.85583984 26.53146484 14.41015625 28.28515625 C16.00911655 33.40571333 17.52522715 38.54719638 19.01342773 43.70092773 C21.37999296 51.87195472 23.99425386 59.9356025 26.71923828 67.99389648 C28.83480081 74.28454651 30.7724787 80.60804317 32.60717773 86.9855957 C34.05243485 91.99330062 35.6674535 96.92282534 37.34765625 101.85546875 C38.80554531 106.3235741 40.04249279 110.8505993 41.3125 115.375 C42.52508175 119.54324975 43.9121432 123.63801581 45.3125 127.74609375 C46.40625103 131.09997876 47.36587777 134.4767741 48.3125 137.875 C49.47834613 142.0303115 50.72673913 146.08744107 52.25 150.125 C54.2707527 155.49782483 55.8753062 160.95753773 57.44580078 166.47485352 C58.67074265 170.7497769 60.06308833 174.8955625 61.625 179.0625 C63.7077605 185.27649738 64.46093252 191.31978701 63.3125 197.8125 C62.23189055 199.97371889 61.40628801 200.87445573 59.359375 202.13671875 C54.98614267 203.58055309 50.82010928 203.63958427 46.3125 202.8125 C39.46722977 198.44317858 37.70134355 189.45048528 35.88598633 181.98266602 C34.66380579 177.35773506 33.00724407 172.86298776 31.43554688 168.34765625 C31.17708984 167.59097656 30.91863281 166.83429688 30.65234375 166.0546875 C30.41894287 165.3829248 30.18554199 164.71116211 29.94506836 164.01904297 C29.17644896 161.33792287 28.77102822 158.56366932 28.3125 155.8125 C5.2125 155.8125 -17.8875 155.8125 -41.6875 155.8125 C-47.48688756 174.86163775 -47.48688756 174.86163775 -53.03515625 193.9765625 C-54.6188873 198.36612464 -56.77746915 200.29367863 -60.6875 202.8125 C-64.75921372 203.86766971 -68.88752672 203.79759604 -72.62890625 201.75 C-74.78811079 200.00182476 -76.4397876 198.30792479 -77.6875 195.8125 C-78.05753711 189.73331898 -77.14500875 185.03782654 -75.1875 179.3125 C-74.92412842 178.5093335 -74.66075684 177.70616699 -74.3894043 176.87866211 C-73.50233466 174.18521474 -72.5967942 171.4985225 -71.6875 168.8125 C-70.64018261 165.70761215 -69.59388641 162.60239955 -68.55078125 159.49609375 C-67.8702219 157.47465539 -67.18435886 155.45499172 -66.4921875 153.4375 C-64.48535285 147.51371097 -62.84255938 141.58511707 -61.37329102 135.5065918 C-60.53875201 132.22815182 -59.45209005 129.09840564 -58.25 125.9375 C-56.09045576 120.24998746 -54.43347524 114.48163741 -52.78295898 108.62646484 C-51.14116342 102.91036716 -49.35795874 97.23972502 -47.56976318 91.56817627 C-46.46704836 88.07012513 -45.37062731 84.57009972 -44.2734375 81.0703125 C-44.05313873 80.36808563 -43.83283997 79.66585876 -43.60586548 78.94235229 C-41.56964848 72.44741632 -39.56075502 65.94421469 -37.5625 59.4375 C-37.24273193 58.3964209 -36.92296387 57.3553418 -36.59350586 56.28271484 C-35.95160885 54.19179748 -35.30992512 52.10081462 -34.66845703 50.00976562 C-33.64307822 46.66771462 -32.61668072 43.32597827 -31.58984375 39.984375 C-31.2431665 38.85523682 -30.89648926 37.72609863 -30.53930664 36.56274414 C-29.85554832 34.34217594 -29.16862295 32.12258005 -28.47827148 29.90405273 C-27.02260196 25.21916832 -25.59223144 20.53920848 -24.3203125 15.80078125 C-21.22133927 4.48327653 -21.22133927 4.48327653 -17.0625 1.375 C-10.98527792 -1.43852874 -6.48025093 -2.08686047 0 0 Z M-7.6875 44.8125 C-11.49747714 54.66735706 -14.3810083 64.7520376 -17.28466797 74.89941406 C-19.99096416 84.34103024 -22.94382805 93.66686443 -26.08569336 102.97290039 C-28.03832385 108.78564434 -29.89090799 114.61828439 -31.625 120.5 C-31.83640625 121.21285156 -32.0478125 121.92570313 -32.265625 122.66015625 C-33.32774764 126.17843781 -33.32774764 126.17843781 -33.6875 129.8125 C-15.8675 129.8125 1.9525 129.8125 20.3125 129.8125 C17.86506921 121.64941114 17.86506921 121.64941114 15.375 113.5 C15.0346875 112.39527344 14.694375 111.29054688 14.34375 110.15234375 C13.67861811 107.99822342 13.01205789 105.84454335 12.34375 103.69140625 C10.73469339 98.49441294 9.15945136 93.29222871 7.65722656 88.06323242 C5.04964566 79.01698191 2.12067427 70.09587218 -0.92089844 61.1862793 C-2.75938567 55.76490277 -4.39424772 50.39006496 -5.6875 44.8125 C-6.3475 44.8125 -7.0075 44.8125 -7.6875 44.8125 Z " fill="#000000" transform="translate(429.6875,803.1875)"/>
<path d="M0 0 C8.11002093 -0.2325454 15.30139541 0.91651753 23.08203125 3.15625 C24.01917969 3.41148437 24.95632812 3.66671875 25.921875 3.9296875 C39.94594912 8.31598328 48.34438608 17.64779663 55.08203125 30.15625 C58.30014273 36.9605576 58.87558949 45.39826623 57.51953125 52.78125 C56.08203125 56.15625 56.08203125 56.15625 53.39453125 58.15625 C48.31011691 59.69116754 44.20530647 59.95532684 39.33203125 57.71875 C34.94349131 54.93315115 34.35551312 50.93739247 33.08203125 46.15625 C30.177039 37.5308545 27.25411263 32.66332809 18.95703125 28.40625 C10.58318135 24.38476585 1.08724446 23.67980905 -7.984375 25.91015625 C-15.34429668 28.77546927 -21.36412035 32.57846897 -25.91796875 39.15625 C-28.61156666 45.75765836 -29.00995976 53.4227938 -26.85546875 60.21875 C-22.172197 71.14638409 -11.53609726 77.871742 -0.91796875 82.15625 C0.82094345 83.07554753 2.54917403 84.01518057 4.26953125 84.96875 C8.20580895 87.15017139 12.17256934 89.22464653 16.20703125 91.21875 C25.48388796 95.83926937 33.81950729 100.85920522 42.08203125 107.15625 C42.92121094 107.77628906 43.76039062 108.39632812 44.625 109.03515625 C53.9863676 117.11659124 59.33601058 128.69079418 60.29638672 140.87597656 C61.23643172 158.72218917 60.14231588 174.96767984 48.08203125 189.15625 C37.02055 200.32946338 22.72904098 204.33649727 7.40014648 204.53637695 C-13.68856543 204.50553477 -13.68856543 204.50553477 -23.91796875 200.15625 C-24.80871094 199.805625 -25.69945313 199.455 -26.6171875 199.09375 C-33.79271847 195.92904415 -41.84262947 190.66125478 -45.19921875 183.375 C-45.43640625 182.6428125 -45.67359375 181.910625 -45.91796875 181.15625 C-46.57796875 181.15625 -47.23796875 181.15625 -47.91796875 181.15625 C-54.86093099 170.5359876 -57.67753517 157.77992834 -55.91796875 145.15625 C-54.56029307 142.25363302 -53.46713054 141.23114913 -50.91796875 139.15625 C-46.14228945 137.5643569 -42.32410554 137.62563234 -37.60546875 139.40625 C-34.64879224 141.33152773 -34.14899358 141.95452876 -32.91796875 145.15625 C-32.58469385 146.99739061 -32.25586435 148.83991807 -31.98095703 150.69067383 C-30.8337588 158.35327792 -29.20222726 165.17797598 -23.91796875 171.15625 C-20.99641376 173.1086353 -17.93607682 174.71585892 -14.79296875 176.28125 C-14.13039062 176.61382813 -13.4678125 176.94640625 -12.78515625 177.2890625 C-7.36627527 179.80578128 -2.0330074 179.37845361 3.83203125 179.40625 C4.90453125 179.426875 5.97703125 179.4475 7.08203125 179.46875 C16.43439656 179.51482077 21.32152692 177.3900785 29.08203125 172.15625 C29.74203125 172.15625 30.40203125 172.15625 31.08203125 172.15625 C31.18515625 171.475625 31.28828125 170.795 31.39453125 170.09375 C32.21914577 166.57039706 33.65814549 163.4786501 35.08203125 160.15625 C37.50441486 150.03826674 36.40233496 140.46527847 31.07446289 131.45166016 C28.02049134 126.81514753 24.56298022 123.96429763 19.89453125 121.03125 C19.23179199 120.60239502 18.56905273 120.17354004 17.88623047 119.73168945 C13.50124195 116.93558061 9.03774648 114.44393959 4.33203125 112.22265625 C-1.6638584 109.38085439 -7.33875226 105.9083732 -13.04296875 102.53125 C-16.18413373 100.68140883 -19.09481552 99.08489078 -22.48046875 97.71875 C-34.48511962 92.26209051 -45.4137153 82.21652507 -50.91796875 70.15625 C-52.85623934 63.95113801 -53.25393662 58.25838111 -53.23046875 51.78125 C-53.24658203 50.89953125 -53.26269531 50.0178125 -53.27929688 49.109375 C-53.28838814 36.70888306 -48.65916579 26.6929788 -40.91796875 17.15625 C-37.80703352 14.08793032 -34.55639333 11.56555972 -30.91796875 9.15625 C-30.34691406 8.75148438 -29.77585937 8.34671875 -29.1875 7.9296875 C-20.65276384 2.40845077 -9.97545653 0.53416099 0 0 Z " fill="#000000" transform="translate(68.91796875,801.84375)"/>
<path d="M0 0 C5.46011549 4.99683296 9.87522872 10.78030647 12.75 17.625 C13.0284375 18.24890625 13.306875 18.8728125 13.59375 19.515625 C18.37405235 32.17457383 17.17552705 48.39425861 11.75 60.625 C9.8125 64 9.8125 64 7.75 66.625 C7.39292969 67.18445313 7.03585937 67.74390625 6.66796875 68.3203125 C0.31692647 78.13362866 -11.22408188 84.10866562 -22.3046875 87.11328125 C-35.56279447 89.41674546 -48.87528371 87.8914677 -60.41796875 80.6328125 C-61.35253906 79.97023438 -62.28710938 79.30765625 -63.25 78.625 C-63.97445313 78.13257813 -64.69890625 77.64015625 -65.4453125 77.1328125 C-69.74290806 74.053159 -72.55882556 71.26495594 -75.25 66.625 C-75.65992188 66.04105469 -76.06984375 65.45710938 -76.4921875 64.85546875 C-84.70428746 52.92605727 -85.02400566 37.62758557 -82.55859375 23.7265625 C-80.66880748 16.94230887 -77.88919711 11.86930978 -73.25 6.625 C-72.73695313 5.95984375 -72.22390625 5.2946875 -71.6953125 4.609375 C-63.87838305 -5.189838 -53.73033212 -9.73844468 -41.6875 -12.0625 C-25.7682219 -13.5097071 -12.39830779 -10.22685276 0 0 Z " fill="#EF5422" transform="translate(480.25,442.375)"/>
<path d="M0 0 C3.24044458 2.56535196 4.69560167 4.086805 6 8 C6.1018045 10.48238961 6.14781137 12.93698426 6.14717102 15.41963196 C6.15084771 16.18158613 6.1545244 16.9435403 6.1583125 17.72858399 C6.1693523 20.28952176 6.17319366 22.85041895 6.17700195 25.41137695 C6.18326631 27.24442677 6.18991308 29.07747531 6.19691467 30.91052246 C6.21432521 35.89612145 6.2248763 40.88171085 6.2331202 45.8673327 C6.2382696 48.98123545 6.24434532 52.09513522 6.25063133 55.20903587 C6.26968243 64.94909556 6.28391449 74.68914767 6.2922433 84.4292224 C6.30202044 95.6776319 6.32835279 106.92584487 6.36874419 118.1741851 C6.39888457 126.86556426 6.41371015 135.556887 6.41702431 144.24831742 C6.41937689 149.44085956 6.4283646 154.63319172 6.45348549 159.82567787 C6.47673526 164.71027588 6.4810119 169.59452516 6.47072411 174.47916412 C6.4702279 176.27143449 6.47657315 178.06372185 6.49028015 179.85593987 C6.50795621 182.30418452 6.50091484 184.75117182 6.48774719 187.19941711 C6.49871644 187.90750104 6.50968568 188.61558496 6.52098733 189.34512597 C6.4562499 194.33566051 5.13745281 197.16371957 2 201 C-2.44400266 203.96266844 -6.78901077 203.76945894 -12 203 C-14.89683868 200.7984026 -16.39297231 199.21405538 -18 196 C-18.10411575 193.53247269 -18.14779823 191.09276956 -18.14717102 188.62469482 C-18.15084771 187.85542797 -18.1545244 187.08616112 -18.1583125 186.29358315 C-18.16937325 183.70190035 -18.17319722 181.1102576 -18.17700195 178.51855469 C-18.18326481 176.6659482 -18.18991145 174.81334297 -18.19691467 172.96073914 C-18.21434113 167.9172315 -18.22488095 162.87373335 -18.2331202 157.83020306 C-18.23826695 154.68062614 -18.24434283 151.53105218 -18.25063133 148.38147736 C-18.26968814 138.53142341 -18.28391814 128.68137698 -18.2922433 118.83130813 C-18.30201804 107.45327839 -18.32834174 96.07544308 -18.36874419 84.69748187 C-18.39888463 75.90845915 -18.41371022 67.11949223 -18.41702431 58.33041883 C-18.4193772 53.07861798 -18.42836861 47.82702473 -18.45348549 42.57527924 C-18.47673488 37.63406212 -18.48101204 32.69318974 -18.47072411 27.75193214 C-18.47022787 25.93869952 -18.47657413 24.1254501 -18.49028015 22.31226921 C-18.50795401 19.83551187 -18.50091578 17.35999768 -18.48774719 14.88323975 C-18.49871644 14.16669181 -18.50968568 13.45014387 -18.52098733 12.71188235 C-18.45673732 7.70214105 -17.13361309 4.86397415 -14 1 C-9.70729318 -1.82092162 -4.79232083 -1.36303328 0 0 Z " fill="#000000" transform="translate(725,803)"/>
</svg>
